<mxfile host="Electron" agent="Mozilla/5.0 (Windows NT 10.0; Win64; x64) AppleWebKit/537.36 (KHTML, like Gecko) draw.io/26.0.4 Chrome/128.0.6613.186 Electron/32.2.5 Safari/537.36" version="26.0.4">
  <diagram name="Страница — 1" id="8JRppfXbxutR0n7U1WXW">
    <mxGraphModel dx="989" dy="582" grid="1" gridSize="10" guides="1" tooltips="1" connect="1" arrows="1" fold="1" page="1" pageScale="1" pageWidth="827" pageHeight="1169" math="0" shadow="0">
      <root>
        <mxCell id="0" />
        <mxCell id="1" parent="0" />
        <mxCell id="ZVKlliGMtZvQxSU5FhhP-1" value="Клиент" style="rounded=0;whiteSpace=wrap;html=1;" vertex="1" parent="1">
          <mxGeometry x="160" y="250" width="120" height="60" as="geometry" />
        </mxCell>
        <mxCell id="ZVKlliGMtZvQxSU5FhhP-2" value="" style="rounded=0;whiteSpace=wrap;html=1;fillColor=none;" vertex="1" parent="1">
          <mxGeometry x="370" y="190" width="240" height="190" as="geometry" />
        </mxCell>
        <mxCell id="ZVKlliGMtZvQxSU5FhhP-3" value="" style="rounded=1;whiteSpace=wrap;html=1;" vertex="1" parent="1">
          <mxGeometry x="450" y="240" width="80" height="20" as="geometry" />
        </mxCell>
        <mxCell id="ZVKlliGMtZvQxSU5FhhP-4" value="Flask-приложение" style="text;html=1;align=center;verticalAlign=middle;resizable=0;points=[];autosize=1;strokeColor=none;fillColor=none;" vertex="1" parent="1">
          <mxGeometry x="430" y="210" width="120" height="30" as="geometry" />
        </mxCell>
        <mxCell id="ZVKlliGMtZvQxSU5FhhP-5" value="pymysql" style="shape=hexagon;perimeter=hexagonPerimeter2;whiteSpace=wrap;html=1;fixedSize=1;" vertex="1" parent="1">
          <mxGeometry x="430" y="280" width="120" height="50" as="geometry" />
        </mxCell>
        <mxCell id="ZVKlliGMtZvQxSU5FhhP-6" value="Интерпретатор python" style="text;html=1;align=center;verticalAlign=middle;resizable=0;points=[];autosize=1;strokeColor=none;fillColor=none;" vertex="1" parent="1">
          <mxGeometry x="415" y="340" width="150" height="30" as="geometry" />
        </mxCell>
        <mxCell id="ZVKlliGMtZvQxSU5FhhP-7" value="MySQL" style="rounded=0;whiteSpace=wrap;html=1;" vertex="1" parent="1">
          <mxGeometry x="680" y="260" width="120" height="60" as="geometry" />
        </mxCell>
        <mxCell id="ZVKlliGMtZvQxSU5FhhP-8" value="" style="strokeWidth=2;html=1;shape=mxgraph.flowchart.database;whiteSpace=wrap;" vertex="1" parent="1">
          <mxGeometry x="710" y="390" width="70" height="80" as="geometry" />
        </mxCell>
        <mxCell id="ZVKlliGMtZvQxSU5FhhP-9" value="" style="endArrow=classic;html=1;rounded=0;" edge="1" parent="1">
          <mxGeometry width="50" height="50" relative="1" as="geometry">
            <mxPoint x="280" y="260" as="sourcePoint" />
            <mxPoint x="370" y="260" as="targetPoint" />
          </mxGeometry>
        </mxCell>
        <mxCell id="ZVKlliGMtZvQxSU5FhhP-10" value="" style="endArrow=classic;html=1;rounded=0;" edge="1" parent="1">
          <mxGeometry width="50" height="50" relative="1" as="geometry">
            <mxPoint x="370" y="300" as="sourcePoint" />
            <mxPoint x="280" y="300" as="targetPoint" />
          </mxGeometry>
        </mxCell>
        <mxCell id="ZVKlliGMtZvQxSU5FhhP-12" value="HTTP-запрос" style="rounded=0;whiteSpace=wrap;html=1;fillColor=none;strokeColor=none;" vertex="1" parent="1">
          <mxGeometry x="285" y="220" width="80" height="40" as="geometry" />
        </mxCell>
        <mxCell id="ZVKlliGMtZvQxSU5FhhP-13" value="HTTP-ответ" style="rounded=0;whiteSpace=wrap;html=1;fillColor=none;strokeColor=none;" vertex="1" parent="1">
          <mxGeometry x="290" y="265" width="70" height="40" as="geometry" />
        </mxCell>
        <mxCell id="ZVKlliGMtZvQxSU5FhhP-17" value="" style="endArrow=classic;startArrow=classic;html=1;rounded=0;" edge="1" parent="1">
          <mxGeometry width="50" height="50" relative="1" as="geometry">
            <mxPoint x="610" y="289.66" as="sourcePoint" />
            <mxPoint x="680" y="289.66" as="targetPoint" />
          </mxGeometry>
        </mxCell>
        <mxCell id="ZVKlliGMtZvQxSU5FhhP-18" value="" style="endArrow=classic;startArrow=classic;html=1;rounded=0;" edge="1" parent="1">
          <mxGeometry width="50" height="50" relative="1" as="geometry">
            <mxPoint x="744.66" y="390" as="sourcePoint" />
            <mxPoint x="744.66" y="320" as="targetPoint" />
          </mxGeometry>
        </mxCell>
      </root>
    </mxGraphModel>
  </diagram>
</mxfile>
